<svg width="245" height="306" viewBox="0 0 245 306" fill="none" xmlns="http://www.w3.org/2000/svg">
<g clip-path="url(#clip0_982_2)">
<path d="M159.644 151.714L159.889 98.7793C159.909 94.5965 158.304 90.569 155.411 87.545C152.519 84.5209 148.565 82.7364 144.382 82.567C140.199 82.3976 136.114 83.8567 132.986 86.6369C129.858 89.4172 127.932 93.3017 127.614 97.4725L126.96 105.97L86.4639 79.6933C84.1442 78.1926 81.4942 77.2778 78.7421 77.0277C75.99 76.7775 73.2182 77.1995 70.6656 78.2573C68.113 79.3151 65.8559 80.977 64.0888 83.0999C62.3217 85.2228 61.0975 87.7431 60.5216 90.4437C56.7844 88.6246 52.5105 88.2341 48.5051 89.3457C44.4998 90.4574 41.0397 92.9944 38.7769 96.4788C36.5141 99.9631 35.6049 104.154 36.2206 108.262C36.8363 112.37 38.9345 116.111 42.1196 118.78C40.4202 120.002 38.9636 121.53 37.8246 123.286C35.3714 127.073 34.521 131.678 35.4598 136.09C36.3986 140.502 39.05 144.363 42.8328 146.825L44.9184 148.18C42.7004 149.811 40.9114 151.955 39.7049 154.429C38.4984 156.902 37.9104 159.631 37.9914 162.381C38.0723 165.132 38.8198 167.821 40.1698 170.219C41.5197 172.618 43.4318 174.653 45.7419 176.151L76.8944 196.361C84.963 201.597 94.2942 204.566 103.908 204.955C113.521 205.344 123.062 203.139 131.528 198.571C139.994 194.004 147.073 187.242 152.02 178.997C156.967 170.751 159.601 161.327 159.644 151.714ZM148.621 151.66C148.586 159.295 146.494 166.781 142.565 173.329C138.635 179.878 133.013 185.249 126.289 188.877C119.565 192.505 111.987 194.256 104.351 193.947C96.7156 193.638 89.3041 191.281 82.8954 187.122L51.7457 166.911C51.0807 166.484 50.5067 165.93 50.0566 165.281C49.6066 164.631 49.2893 163.9 49.1231 163.127C48.9569 162.355 48.9449 161.558 49.088 160.781C49.231 160.004 49.5262 159.263 49.9566 158.6C50.387 157.938 50.9442 157.367 51.5961 156.92C52.248 156.473 52.9818 156.159 53.7553 155.997C54.5289 155.834 55.3271 155.826 56.1039 155.972C56.8808 156.118 57.621 156.416 58.2822 156.849L75.6669 168.127C76.2741 168.522 76.9533 168.795 77.6658 168.928C78.3783 169.061 79.1101 169.052 79.8192 168.902C80.5283 168.752 81.2009 168.464 81.7984 168.054C82.3958 167.643 82.9065 167.12 83.3011 166.512C83.6957 165.905 83.9665 165.225 84.0981 164.513C84.2296 163.801 84.2192 163.07 84.0675 162.362C83.9159 161.653 83.6259 160.982 83.2142 160.386C82.8025 159.79 82.2772 159.281 81.6683 158.888L48.8367 137.586C47.513 136.728 46.5807 135.383 46.2415 133.843C45.9023 132.303 46.1834 130.692 47.0241 129.357C47.8648 128.023 49.1974 127.073 50.7338 126.713C52.2701 126.353 53.8866 126.611 55.2336 127.433L88.2051 148.831C89.4312 149.627 90.9263 149.903 92.3564 149.599C93.7864 149.295 95.037 148.436 95.8332 147.211C96.6294 145.986 96.9058 144.495 96.6017 143.066C96.2977 141.637 95.438 140.387 94.2118 139.592L61.3772 118.285L61.1402 118.134L49.7865 110.767C48.7918 110.12 48.0111 109.193 47.5433 108.103C47.0754 107.013 46.9413 105.81 47.1579 104.644C47.3745 103.478 47.932 102.402 48.7601 101.553C49.5882 100.703 50.6496 100.118 51.8104 99.871C52.5814 99.7019 53.3786 99.689 54.1547 99.8331C54.9308 99.9772 55.6701 100.275 56.3289 100.71L100.751 129.535C101.978 130.331 103.47 130.606 104.899 130.302C106.329 129.998 107.579 129.139 108.375 127.914C109.171 126.689 109.447 125.198 109.143 123.769C108.839 122.341 107.979 121.091 106.753 120.296L73.9205 98.9889C73.2569 98.5611 72.6844 98.0067 72.2357 97.3574C71.787 96.708 71.4709 95.9766 71.3057 95.205C71.1404 94.4334 71.1292 93.6368 71.2727 92.8608C71.4162 92.0849 71.7115 91.3448 72.1418 90.6832C72.5721 90.0215 73.1288 89.4512 73.7801 89.0049C74.4314 88.5586 75.1644 88.2452 75.9372 88.0826C76.71 87.9199 77.5073 87.9113 78.2834 88.0571C79.0595 88.203 79.7992 88.5004 80.46 88.9325L128.744 120.259C129.547 120.779 130.47 121.082 131.425 121.137C132.38 121.193 133.332 120.999 134.189 120.576C135.046 120.152 135.778 119.513 136.313 118.721C136.848 117.929 137.168 117.011 137.24 116.058L138.604 98.3116C138.655 97.6231 138.845 96.9521 139.163 96.3392C139.48 95.7263 139.919 95.1843 140.453 94.7461C140.98 94.2979 141.595 93.965 142.258 93.7687C142.921 93.5723 143.618 93.517 144.304 93.6061C145.563 93.7451 146.727 94.3453 147.569 95.2908C148.411 96.2363 148.873 97.46 148.866 98.7259L148.621 151.66ZM204.4 98.7793L204.155 151.714C204.095 165.055 199.051 177.894 190.01 187.713C180.97 197.532 168.585 203.623 155.284 204.793C155.117 204.809 154.953 204.815 154.792 204.815C153.373 204.813 152.009 204.265 150.984 203.284C149.959 202.303 149.353 200.965 149.291 199.549C149.229 198.132 149.716 196.746 150.651 195.679C151.586 194.613 152.896 193.948 154.31 193.822C164.876 192.893 174.713 188.054 181.894 180.255C189.076 172.455 193.084 162.258 193.132 151.66L193.377 98.7255C193.385 97.4597 192.923 96.2359 192.08 95.2905C191.238 94.345 190.075 93.7448 188.816 93.6058C188.13 93.5164 187.432 93.5717 186.769 93.768C186.106 93.9644 185.491 94.2974 184.965 94.7457C184.431 95.184 183.992 95.726 183.674 96.3389C183.356 96.9518 183.166 97.6228 183.116 98.3113L181.751 116.058C181.701 116.783 181.508 117.49 181.183 118.14C180.857 118.79 180.407 119.369 179.857 119.844C179.307 120.319 178.668 120.681 177.977 120.908C177.287 121.135 176.558 121.224 175.833 121.168C175.108 121.113 174.402 120.915 173.754 120.585C173.106 120.256 172.529 119.802 172.058 119.249C171.586 118.696 171.229 118.055 171.006 117.363C170.784 116.672 170.7 115.943 170.761 115.219L172.125 97.4723C172.444 93.3018 174.37 89.4177 177.498 86.6377C180.626 83.8578 184.711 82.399 188.894 82.5684C193.076 82.7377 197.03 84.5222 199.922 87.5459C202.815 90.5696 204.42 94.5967 204.4 98.7793ZM138.263 67.3296V45.3019C138.263 43.8413 138.843 42.4406 139.877 41.4079C140.911 40.3751 142.312 39.7949 143.774 39.7949C145.236 39.7949 146.638 40.3751 147.671 41.4079C148.705 42.4406 149.286 43.8413 149.286 45.3019V67.3296C149.286 68.7901 148.705 70.1908 147.671 71.2236C146.638 72.2563 145.236 72.8365 143.774 72.8365C142.312 72.8365 140.911 72.2563 139.877 71.2236C138.843 70.1908 138.263 68.7901 138.263 67.3296ZM161.851 69.8518C160.653 69.0145 159.837 67.7362 159.583 66.298C159.328 64.8598 159.656 63.3796 160.494 62.1829L173.137 44.1348C173.549 43.5349 174.076 43.0225 174.687 42.6271C175.298 42.2317 175.981 41.9613 176.698 41.8314C177.414 41.7014 178.149 41.7146 178.86 41.8702C179.572 42.0257 180.245 42.3205 180.842 42.7375C181.438 43.1546 181.946 43.6856 182.336 44.2999C182.726 44.9142 182.99 45.5996 183.114 46.3166C183.237 47.0336 183.217 47.7678 183.055 48.477C182.893 49.1862 182.591 49.8562 182.169 50.4484L169.526 68.4966C169.111 69.0891 168.583 69.5943 167.973 69.9831C167.363 70.3719 166.682 70.6368 165.969 70.7627C165.256 70.8885 164.526 70.8729 163.819 70.7166C163.112 70.5603 162.444 70.2664 161.851 69.8518ZM105.38 50.4485C104.957 49.8563 104.656 49.1863 104.493 48.4771C104.331 47.7679 104.311 47.0336 104.435 46.3166C104.558 45.5997 104.822 44.9143 105.212 44.3C105.602 43.6856 106.11 43.1546 106.707 42.7376C107.303 42.3206 107.977 42.0258 108.688 41.8702C109.399 41.7147 110.134 41.7015 110.851 41.8314C111.567 41.9613 112.25 42.2318 112.862 42.6272C113.473 43.0225 113.999 43.535 114.411 44.1349L127.054 62.183C127.477 62.7752 127.779 63.4452 127.941 64.1544C128.103 64.8636 128.123 65.5978 128 66.3148C127.876 67.0318 127.612 67.7172 127.222 68.3315C126.832 68.9458 126.324 69.4768 125.728 69.8938C125.131 70.3109 124.458 70.6057 123.746 70.7612C123.035 70.9168 122.3 70.9299 121.584 70.8C120.867 70.6701 120.184 70.3997 119.573 70.0043C118.962 69.6089 118.435 69.0965 118.023 68.4966L105.38 50.4485Z" fill="black"/>
</g>
<defs>
<clipPath id="clip0_982_2">
<rect width="245" height="306" fill="white"/>
</clipPath>
</defs>
</svg>
