<svg width="284" height="355" viewBox="0 0 284 355" fill="none" xmlns="http://www.w3.org/2000/svg">
<path d="M220.39 58.8006L192.73 86.4606C178.73 79.6106 161 75.4606 141.73 75.4606C122.46 75.4606 104.73 79.5606 90.7295 86.4606L63.0795 58.8006C61.9506 57.6912 60.429 57.0728 58.8461 57.0801C57.2633 57.0875 55.7475 57.72 54.6289 58.8399C53.5103 59.9598 52.8796 61.4764 52.8741 63.0592C52.8686 64.6421 53.4888 66.163 54.5995 67.2906L79.9995 92.7206C67.1695 101.721 59.3695 113.481 59.3695 126.391V169.541C59.3695 197.641 96.2295 220.421 141.71 220.421C187.19 220.421 224.04 197.641 224.04 169.541V126.391C224.04 113.471 216.24 101.691 203.41 92.7206L228.84 67.2906C229.95 66.163 230.571 64.6421 230.565 63.0592C230.56 61.4764 229.929 59.9598 228.81 58.8399C227.692 57.72 226.176 57.0875 224.593 57.0801C223.01 57.0728 221.488 57.6912 220.36 58.8006H220.39ZM212.07 126.391C212.07 131.761 209.68 142.261 193.65 152.161C179.97 160.611 161.53 165.271 141.74 165.271C121.95 165.271 103.51 160.611 89.8295 152.161C73.8295 142.251 71.4095 131.761 71.4095 126.391C71.4095 121.021 73.6895 111.041 88.6795 101.391L114.96 127.671C115.515 128.235 116.177 128.684 116.907 128.991C117.638 129.298 118.421 129.457 119.213 129.46C120.005 129.463 120.79 129.309 121.522 129.007C122.254 128.705 122.919 128.261 123.479 127.7C124.039 127.14 124.482 126.474 124.783 125.742C125.084 125.009 125.238 124.224 125.234 123.432C125.23 122.64 125.07 121.857 124.762 121.127C124.454 120.397 124.004 119.736 123.44 119.181L99.7795 95.5006C111.9 90.3106 126.41 87.5006 141.78 87.5006C157.15 87.5006 171.61 90.3006 183.78 95.5006L160 119.151C159.435 119.706 158.985 120.367 158.677 121.097C158.369 121.827 158.209 122.61 158.205 123.402C158.201 124.194 158.355 124.979 158.656 125.712C158.957 126.444 159.4 127.11 159.96 127.67C160.52 128.231 161.185 128.675 161.917 128.977C162.649 129.279 163.434 129.433 164.226 129.43C165.018 129.427 165.802 129.268 166.532 128.961C167.262 128.654 167.924 128.205 168.48 127.641L194.76 101.361C209.78 111.001 212.07 121.151 212.07 126.391Z" fill="black"/>
</svg>
