<svg width="284" height="355" viewBox="0 0 284 355" fill="none" xmlns="http://www.w3.org/2000/svg">
<path d="M56.93 235.361C57.6337 235.718 58.4009 235.932 59.1876 235.992C59.9742 236.052 60.765 235.956 61.5146 235.71C62.2642 235.463 62.9579 235.072 63.5559 234.557C64.154 234.043 64.6447 233.415 65 232.711L73.67 215.541C89.73 234.161 114.25 246.071 141.74 246.071C169.23 246.071 193.74 234.161 209.81 215.541L218.48 232.711C218.828 233.425 219.316 234.063 219.913 234.588C220.51 235.113 221.206 235.513 221.959 235.767C222.712 236.02 223.509 236.122 224.302 236.065C225.095 236.008 225.868 235.794 226.578 235.436C227.287 235.077 227.919 234.582 228.435 233.977C228.951 233.373 229.342 232.672 229.585 231.915C229.828 231.158 229.919 230.36 229.851 229.568C229.783 228.776 229.558 228.005 229.19 227.301L217.75 204.651C224.778 193.205 228.742 180.142 229.26 166.721H229.32V119.721C229.32 74.2509 190.1 37.3809 141.73 37.3809C93.36 37.3809 54.14 74.2709 54.14 119.741V166.741H54.2C54.7182 180.162 58.682 193.225 65.71 204.671L54.28 227.301C53.5627 228.721 53.439 230.368 53.9359 231.88C54.4329 233.391 55.5098 234.643 56.93 235.361ZM66.14 163.721C66.14 124.931 100.05 93.3809 141.73 93.3809C183.41 93.3809 217.32 124.931 217.32 163.721C217.32 202.511 183.41 234.061 141.73 234.061C100.05 234.061 66.14 202.511 66.14 163.721ZM135.73 49.6409V81.5809C123.52 82.3378 111.587 85.5412 100.64 91.0009V60.7509C111.297 54.3315 123.321 50.5245 135.73 49.6409ZM182.82 60.7409V91.0009C171.872 85.5447 159.939 82.3447 147.73 81.5909V49.6409C160.139 50.5245 172.163 54.3315 182.82 60.7509V60.7409ZM217.32 122.101C211.449 112.75 203.806 104.637 194.82 98.2209V69.7309C208.7 82.4909 217.32 100.201 217.32 119.731V122.101ZM88.64 69.7309V98.2309C79.6542 104.647 72.0106 112.759 66.14 122.111V119.741C66.14 100.191 74.76 82.4909 88.64 69.7309Z" fill="black"/>
</svg>
