<svg width="284" height="355" viewBox="0 0 284 355" fill="none" xmlns="http://www.w3.org/2000/svg">
<path d="M217.75 204.651C224.778 193.205 228.741 180.142 229.26 166.721H229.32V119.721C229.32 74.2509 190.1 37.3809 141.73 37.3809C93.3596 37.3809 54.1396 74.2709 54.1396 119.741V166.741H54.1996C54.7178 180.162 58.6816 193.225 65.7096 204.671L54.2796 227.301C53.5622 228.722 53.4389 230.371 53.9368 231.883C54.4347 233.396 55.5131 234.648 56.9346 235.366C58.3562 236.083 60.0045 236.207 61.517 235.709C63.0295 235.211 64.2822 234.132 64.9996 232.711L73.6696 215.531C89.7296 234.151 114.25 246.061 141.74 246.061C169.23 246.061 193.74 234.151 209.81 215.531L218.48 232.711C219.21 234.108 220.461 235.162 221.963 235.644C223.464 236.126 225.095 235.998 226.502 235.287C227.91 234.576 228.981 233.34 229.484 231.845C229.987 230.351 229.881 228.718 229.19 227.301L217.75 204.651ZM141.75 234.061C100.07 234.061 66.1596 202.511 66.1596 163.721C66.1596 124.931 100.07 93.3809 141.75 93.3809C183.43 93.3809 217.34 124.931 217.34 163.721C217.34 202.511 183.41 234.061 141.73 234.061H141.75Z" fill="black"/>
<path d="M165.41 204.171C175.914 204.171 184.43 195.655 184.43 185.151C184.43 174.646 175.914 166.131 165.41 166.131C154.905 166.131 146.39 174.646 146.39 185.151C146.39 195.655 154.905 204.171 165.41 204.171Z" fill="black"/>
</svg>
