<svg width="284" height="355" viewBox="0 0 284 355" fill="none" xmlns="http://www.w3.org/2000/svg">
<path d="M230.92 45.0001C229.539 44.8023 228.131 44.9054 226.793 45.3024C225.455 45.6994 224.219 46.3809 223.17 47.3001C220.58 48.6601 217.12 51.1101 216.37 51.6001L194.69 65.1901C193.958 65.8514 193.517 66.7741 193.46 67.7586C193.404 68.7431 193.738 69.71 194.39 70.4501C195.75 71.9101 196.62 74.2901 195.09 75.7101L143.71 124.17C144.21 112.99 140.97 107.09 136.48 103.93C133.698 101.998 130.386 100.975 127 101C125.255 101.002 123.52 101.258 121.85 101.76C118.918 102.692 116.199 104.194 113.85 106.18C105.22 113.18 100.26 122.49 96.5498 130.69C95.6236 133.004 93.9332 134.931 91.7598 136.15C87.8598 138.26 84.5798 139.87 81.4598 141.24C69.1098 146.62 43.3698 157.84 44.2198 186C44.5298 196.42 48.8598 206.94 56.7298 216.43C63.363 224.469 71.779 230.852 81.3098 235.07C86.6125 237.354 92.3259 238.532 98.0998 238.53C113.68 238.53 127.1 230.02 133.15 216.31C134.613 212.762 135.722 209.077 136.46 205.31C137.28 201.71 137.98 198.6 139.34 197.22C141.372 195.381 143.583 193.749 145.94 192.35C151.94 188.47 159.36 183.65 165.58 176.83C168.27 173.88 172.52 166.9 171.41 159.42C171.092 157.158 170.271 154.995 169.008 153.092C167.745 151.188 166.071 149.592 164.11 148.42C161.459 146.839 158.426 146.013 155.34 146.03C155.098 146.034 154.858 145.979 154.642 145.87C154.425 145.762 154.238 145.603 154.095 145.407C153.953 145.211 153.86 144.983 153.825 144.743C153.789 144.504 153.811 144.259 153.89 144.03C154.533 142.418 155.499 140.954 156.73 139.73L205 86.5301C205.711 85.8463 206.663 85.4701 207.649 85.4832C208.636 85.4963 209.577 85.8976 210.27 86.6001C210.962 87.3027 211.904 87.704 212.89 87.7171C213.877 87.7302 214.829 87.354 215.54 86.6701L225.12 64.0001C226.476 64.1786 227.842 64.2821 229.21 64.3101C231.662 64.3432 234.035 63.4483 235.855 61.8049C237.675 60.1615 238.807 57.8909 239.023 55.4484C239.239 53.0059 238.524 50.5719 237.022 48.6342C235.519 46.6966 233.339 45.3985 230.92 45.0001ZM158 158.81C161.43 160.81 158.62 166.72 156.74 168.81C151.74 174.33 145.64 178.33 139.43 182.35C136.333 184.203 133.446 186.386 130.82 188.86C124.82 194.92 125.5 203.99 122.19 211.51C117.8 221.51 108.19 226.57 98.1198 226.57C93.9506 226.562 89.8267 225.704 85.9998 224.05C71.7398 217.94 56.6698 202.23 56.1698 185.65C55.6098 167.13 71.4298 158.65 86.2298 152.22C90.0498 150.56 93.7698 148.67 97.4398 146.69C101.92 144.226 105.442 140.327 107.44 135.62C110.82 128.16 114.91 120.72 121.37 115.48C122.491 114.488 123.796 113.724 125.21 113.23C125.791 113.064 126.395 112.986 127 113C127.921 112.981 128.825 113.247 129.59 113.76C132.81 116.02 131.59 122.06 131.59 125.37C131.564 126.452 131.608 127.534 131.72 128.61C131.902 129.877 132.207 131.122 132.63 132.33C134.76 138.78 138.77 144.59 142.73 150.06C144.514 152.515 146.887 154.481 149.63 155.78C152.31 157 155.46 157.3 158 158.81Z" fill="black"/>
<path d="M124 144C123.445 143.435 122.783 142.985 122.054 142.677C121.324 142.369 120.541 142.209 119.749 142.205C118.957 142.201 118.172 142.355 117.439 142.656C116.707 142.957 116.041 143.4 115.481 143.96C114.92 144.52 114.476 145.185 114.174 145.917C113.872 146.649 113.718 147.434 113.721 148.226C113.723 149.018 113.883 149.802 114.19 150.532C114.497 151.262 114.946 151.924 115.51 152.48L127.66 164.63C128.215 165.194 128.877 165.644 129.606 165.952C130.336 166.26 131.12 166.42 131.912 166.424C132.704 166.428 133.489 166.274 134.221 165.973C134.954 165.672 135.619 165.229 136.18 164.669C136.74 164.109 137.184 163.444 137.486 162.712C137.788 161.98 137.942 161.195 137.94 160.403C137.937 159.611 137.777 158.828 137.47 158.097C137.163 157.367 136.714 156.705 136.15 156.15L124 144Z" fill="black"/>
<path d="M105.62 163.06C104.482 162 102.978 161.423 101.423 161.45C99.869 161.478 98.386 162.107 97.2867 163.207C96.1874 164.306 95.5577 165.789 95.5302 167.343C95.5028 168.898 96.0798 170.402 97.1396 171.54L109.29 183.69C110.427 184.749 111.931 185.326 113.486 185.299C115.04 185.272 116.523 184.642 117.623 183.543C118.722 182.443 119.352 180.96 119.379 179.406C119.406 177.851 118.829 176.347 117.77 175.21L105.62 163.06Z" fill="black"/>
</svg>
