<svg width="284" height="355" viewBox="0 0 284 355" fill="none" xmlns="http://www.w3.org/2000/svg">
<path d="M177.1 124.5V116.77C177.097 116.291 177.036 115.814 176.92 115.35C176.6 94.7996 151.11 77.9696 118.58 76.0796V68.3496C118.58 66.7583 117.948 65.2322 116.823 64.107C115.697 62.9818 114.171 62.3496 112.58 62.3496C110.989 62.3496 109.463 62.9818 108.337 64.107C107.212 65.2322 106.58 66.7583 106.58 68.3496V76.0696C73.74 77.9096 48 94.9996 48 115.73C48 136.46 73.73 153.56 106.57 155.4V162.85C106.57 163.29 106.52 163.72 106.52 164.16C106.52 164.6 106.52 165.04 106.57 165.47V166.69C106.572 167.429 106.711 168.161 106.98 168.85C110.51 187.45 134.76 202.13 165.09 203.85V215.14C165.09 216.731 165.722 218.257 166.847 219.382C167.973 220.507 169.499 221.14 171.09 221.14C172.681 221.14 174.207 220.507 175.333 219.382C176.458 218.257 177.09 216.731 177.09 215.14V203.84C209.83 201.94 235.45 184.91 235.45 164.18C235.45 143.45 209.84 126.4 177.1 124.5ZM149.1 189.34L158 171.11C158.909 169.21 159.056 167.034 158.41 165.029C157.765 163.024 156.376 161.343 154.53 160.33L154.42 160.27C153.115 159.504 151.625 159.112 150.112 159.135C148.599 159.158 147.121 159.595 145.84 160.4L123.05 174.93C120.05 171.45 118.49 167.75 118.49 164.16C118.49 151.85 137.33 138.22 165.06 136.5V144.32C165.06 145.911 165.692 147.437 166.817 148.562C167.943 149.687 169.469 150.32 171.06 150.32C172.651 150.32 174.177 149.687 175.303 148.562C176.428 147.437 177.06 145.911 177.06 144.32V136.52C204.67 138.29 223.42 151.88 223.42 164.16C223.42 177.33 201.87 192 170.95 192C163.597 192.028 156.27 191.135 149.14 189.34H149.1ZM112.43 143.57C105.064 143.601 97.7233 142.707 90.58 140.91L99.47 122.68C100.376 120.781 100.521 118.607 99.8759 116.605C99.2307 114.602 97.844 112.923 96 111.91L95.89 111.85C94.5848 111.084 93.0947 110.692 91.5818 110.715C90.069 110.738 88.5914 111.175 87.31 111.98L64.57 126.5C61.57 123.02 60.01 119.32 60.01 115.73C60.01 103.42 78.85 89.7896 106.58 88.0696V95.8896C106.58 97.4809 107.212 99.007 108.337 100.132C109.463 101.257 110.989 101.89 112.58 101.89C114.171 101.89 115.697 101.257 116.823 100.132C117.948 99.007 118.58 97.4809 118.58 95.8896V88.0896C146.19 89.8596 164.94 103.45 164.94 115.73C164.831 118.987 163.717 122.131 161.75 124.73C142.29 126.46 125.64 133.55 115.86 143.51C114.74 143.55 113.61 143.57 112.47 143.57H112.43Z" fill="black"/>
</svg>
