<svg width="284" height="355" viewBox="0 0 284 355" fill="none" xmlns="http://www.w3.org/2000/svg">
<path d="M135.87 189.15V203.15C135.87 204.741 136.503 206.267 137.628 207.392C138.753 208.518 140.279 209.15 141.87 209.15C143.462 209.15 144.988 208.518 146.113 207.392C147.238 206.267 147.87 204.741 147.87 203.15V189.14C189.51 187.2 222.32 165.72 222.32 139.5C222.32 113.28 189.5 91.7998 147.87 89.8598V80.2598C147.87 78.6685 147.238 77.1423 146.113 76.0171C144.988 74.8919 143.462 74.2598 141.87 74.2598C140.279 74.2598 138.753 74.8919 137.628 76.0171C136.503 77.1423 135.87 78.6685 135.87 80.2598V89.8398C94.1004 91.6998 61.1504 113.22 61.1504 139.5C61.1504 165.78 94.1004 187.3 135.87 189.15ZM141.87 120.7C143.462 120.7 144.988 120.068 146.113 118.942C147.238 117.817 147.87 116.291 147.87 114.7V101.86C164.87 102.72 180.48 107.12 192.41 114.49C207.99 124.12 210.32 134.29 210.32 139.49C210.32 144.69 207.99 154.87 192.41 164.49C179.06 172.74 161.06 177.28 141.74 177.28C132.076 177.319 122.447 176.112 113.09 173.69L125.54 148.17C126.676 145.796 126.859 143.078 126.054 140.574C125.249 138.069 123.516 135.967 121.21 134.7L121.07 134.62C119.44 133.663 117.578 133.172 115.688 133.2C113.798 133.228 111.952 133.775 110.35 134.78L79.2504 154.61C74.1504 148.47 73.1504 142.91 73.1504 139.5C73.1504 134.29 75.4804 124.12 91.0604 114.5C103.06 107.09 118.79 102.68 135.87 101.86V114.7C135.87 116.291 136.503 117.817 137.628 118.942C138.753 120.068 140.279 120.7 141.87 120.7Z" fill="black"/>
</svg>
