<svg width="284" height="355" viewBox="0 0 284 355" fill="none" xmlns="http://www.w3.org/2000/svg">
<path d="M69.8304 144C65.4604 149.63 63.1404 155.71 63.1404 161.89C63.1404 173.11 70.7404 183.99 84.5304 192.51C98.3204 201.03 116.35 206.04 135.87 206.88V221.2C135.87 222.791 136.503 224.317 137.628 225.442C138.753 226.568 140.279 227.2 141.87 227.2C143.462 227.2 144.988 226.568 146.113 225.442C147.238 224.317 147.87 222.791 147.87 221.2V206.84C167.28 205.96 185.23 200.95 198.94 192.48C212.65 184.01 220.33 173.08 220.33 161.86C220.33 155.68 218.01 149.61 213.64 143.97C215.649 141.55 217.377 138.909 218.79 136.1C221.085 131.573 222.294 126.575 222.32 121.5C222.32 95.2698 189.51 73.7998 147.87 71.8598V62.2598C147.87 60.6685 147.238 59.1423 146.113 58.0171C144.988 56.8919 143.462 56.2598 141.87 56.2598C140.279 56.2598 138.753 56.8919 137.628 58.0171C136.503 59.1423 135.87 60.6685 135.87 62.2598V71.8398C94.1004 73.6998 61.1504 95.2198 61.1504 121.5C61.1771 126.575 62.3857 131.573 64.6804 136.1C66.0921 138.92 67.8198 141.57 69.8304 144ZM73.1504 121.52C73.1504 116.31 75.4804 106.14 91.0604 96.5198C103.06 89.1098 118.79 84.6998 135.87 83.8798V96.6998C135.87 98.2911 136.503 99.8172 137.628 100.942C138.753 102.068 140.279 102.7 141.87 102.7C143.462 102.7 144.988 102.068 146.113 100.942C147.238 99.8172 147.87 98.2911 147.87 96.6998V83.8598C164.87 84.7198 180.48 89.1198 192.41 96.4898C207.99 106.12 210.32 116.29 210.32 121.49C210.32 126.69 207.99 136.87 192.41 146.49C179.06 154.74 161.06 159.28 141.74 159.28C132.065 159.318 122.426 158.108 113.06 155.68L125.54 130.09C126.676 127.716 126.859 124.998 126.054 122.494C125.249 119.989 123.516 117.887 121.21 116.62L121.07 116.54C119.44 115.583 117.578 115.092 115.688 115.12C113.798 115.148 111.952 115.695 110.35 116.7L79.2104 136.56C74.1504 130.44 73.1504 124.91 73.1504 121.5V121.52Z" fill="black"/>
</svg>
