<svg width="284" height="355" viewBox="0 0 284 355" fill="none" xmlns="http://www.w3.org/2000/svg">
<path d="M67.1104 198H216.35C219.533 198 222.585 196.736 224.836 194.485C227.086 192.235 228.35 189.183 228.35 186V97.4199C228.35 94.2373 227.086 91.1851 224.836 88.9346C222.585 86.6842 219.533 85.4199 216.35 85.4199H67.1104C63.9278 85.4199 60.8755 86.6842 58.6251 88.9346C56.3746 91.1851 55.1104 94.2373 55.1104 97.4199V186C55.1104 189.183 56.3746 192.235 58.6251 194.485C60.8755 196.736 63.9278 198 67.1104 198ZM67.1104 186V134.23H84.2104V160.44C84.2104 162.031 84.8425 163.557 85.9677 164.683C87.0929 165.808 88.6191 166.44 90.2104 166.44C91.8016 166.44 93.3278 165.808 94.453 164.683C95.5782 163.557 96.2104 162.031 96.2104 160.44V134.23H106.21V160.44C106.21 162.031 106.842 163.557 107.968 164.683C109.093 165.808 110.619 166.44 112.21 166.44C113.802 166.44 115.328 165.808 116.453 164.683C117.578 163.557 118.21 162.031 118.21 160.44V134.23H142.21V160.44C142.21 162.031 142.842 163.557 143.968 164.683C145.093 165.808 146.619 166.44 148.21 166.44C149.802 166.44 151.328 165.808 152.453 164.683C153.578 163.557 154.21 162.031 154.21 160.44V134.23H164.56V160.44C164.56 162.031 165.192 163.557 166.318 164.683C167.443 165.808 168.969 166.44 170.56 166.44C172.152 166.44 173.678 165.808 174.803 164.683C175.928 163.557 176.56 162.031 176.56 160.44V134.23H186.56V160.44C186.56 162.031 187.192 163.557 188.318 164.683C189.443 165.808 190.969 166.44 192.56 166.44C194.152 166.44 195.678 165.808 196.803 164.683C197.928 163.557 198.56 162.031 198.56 160.44V134.23H216.31V186H67.1104ZM198.69 108.78C198.69 109.868 198.368 110.931 197.763 111.836C197.159 112.74 196.3 113.445 195.295 113.861C194.29 114.278 193.184 114.386 192.117 114.174C191.05 113.962 190.07 113.438 189.301 112.669C188.532 111.9 188.008 110.92 187.796 109.853C187.584 108.786 187.693 107.68 188.109 106.675C188.525 105.67 189.23 104.811 190.135 104.207C191.039 103.602 192.103 103.28 193.19 103.28C193.917 103.28 194.636 103.424 195.307 103.703C195.977 103.983 196.586 104.392 197.097 104.908C197.609 105.425 198.013 106.037 198.286 106.71C198.56 107.383 198.697 108.103 198.69 108.83V108.78ZM176.14 108.78C176.14 109.868 175.818 110.931 175.213 111.836C174.609 112.74 173.75 113.445 172.745 113.861C171.74 114.278 170.634 114.386 169.567 114.174C168.5 113.962 167.52 113.438 166.751 112.669C165.982 111.9 165.458 110.92 165.246 109.853C165.034 108.786 165.143 107.68 165.559 106.675C165.975 105.67 166.68 104.811 167.585 104.207C168.489 103.602 169.553 103.28 170.64 103.28C171.367 103.28 172.086 103.424 172.757 103.703C173.427 103.983 174.036 104.392 174.547 104.908C175.059 105.425 175.463 106.037 175.736 106.71C176.01 107.383 176.147 108.103 176.14 108.83V108.78Z" fill="black"/>
</svg>
