<svg width="284" height="355" viewBox="0 0 284 355" fill="none" xmlns="http://www.w3.org/2000/svg">
<path d="M213.36 106.2C213.36 81.7497 181.29 61.9297 141.73 61.9297C102.17 61.9297 70.0996 81.7497 70.0996 106.2V177.27C70.0996 201.72 102.17 221.54 141.73 221.54C181.29 221.54 213.36 201.72 213.36 177.27V106.2ZM82.0996 106.2C82.0996 101.85 84.0996 93.3297 97.3896 85.1097C108.88 77.9997 125 73.9297 141.73 73.9297C158.46 73.9297 174.58 77.9997 186.07 85.0997C199.37 93.3197 201.36 101.85 201.36 106.19C201.36 110.53 199.36 119.06 186.07 127.28C184.71 128.12 183.28 128.92 181.79 129.67C180.36 129.786 179.019 130.41 178.01 131.43C167.57 135.94 154.81 138.43 141.73 138.43C125.04 138.43 108.88 134.36 97.3896 127.26C84.0896 119.07 82.0996 110.55 82.0996 106.2ZM105.68 202.62C105.805 202.133 105.869 201.632 105.87 201.13V144.51C115.282 147.809 125.119 149.745 135.08 150.26V209.26C124.978 208.702 115.041 206.458 105.68 202.62ZM147.08 150.33C157.018 149.934 166.852 148.14 176.29 145V201.15C176.289 201.831 176.404 202.507 176.63 203.15C167.192 206.855 157.208 208.976 147.08 209.43V150.33ZM82.0796 130.72C85.6525 133.984 89.6041 136.807 93.8496 139.13V196C83.6996 188.55 82.0796 181.2 82.0796 177.27V130.72ZM188.27 196.92V139.83C193.005 137.376 197.402 134.317 201.35 130.73V177.28C201.36 181.36 199.6 189.16 188.29 196.92H188.27Z" fill="black"/>
</svg>
