<svg width="32" height="32" viewBox="0 0 32 32" fill="none" xmlns="http://www.w3.org/2000/svg">
<rect width="32" height="32" fill="white"/>
<path fill-rule="evenodd" clip-rule="evenodd" d="M5.90071 9.36735C5.90071 5.85076 8.73747 3 12.2368 3H19.7632C23.2625 3 26.0993 5.85076 26.0993 9.36735V14.6933C26.3581 14.6527 26.6234 14.6316 26.8936 14.6316C29.7138 14.6316 32 16.9291 32 19.7632C32 22.5973 29.7138 24.8947 26.8936 24.8947C26.4955 24.8947 26.1081 24.849 25.7362 24.7624C24.8644 27.2316 22.5193 29 19.7632 29H12.2368C9.48072 29 7.13565 27.2316 6.2638 24.7624C5.89192 24.849 5.50447 24.8947 5.10638 24.8947C2.28621 24.8947 0 22.5973 0 19.7632C0 16.9291 2.28621 14.6316 5.10638 14.6316C5.37657 14.6316 5.64186 14.6527 5.90071 14.6933V9.36735Z" fill="white"/>
<path fill-rule="evenodd" clip-rule="evenodd" d="M25.3073 15.6232V9.36735C25.3073 6.29033 22.8251 3.79592 19.7632 3.79592H12.2368C9.17489 3.79592 6.69272 6.29033 6.69272 9.36735V15.6232L5.77849 15.4797C5.55993 15.4454 5.33551 15.4275 5.10638 15.4275C2.72362 15.4275 0.79201 17.3686 0.79201 19.7632C0.79201 22.1577 2.72362 24.0988 5.10638 24.0988C5.44387 24.0988 5.77134 24.06 6.085 23.987L6.77379 23.8266L7.01022 24.4962C7.77346 26.6579 9.82647 28.2041 12.2368 28.2041H19.7632C22.1735 28.2041 24.2265 26.6579 24.9898 24.4962L25.2262 23.8266L25.915 23.987C26.2287 24.06 26.5561 24.0988 26.8936 24.0988C29.2764 24.0988 31.208 22.1577 31.208 19.7632C31.208 17.3686 29.2764 15.4275 26.8936 15.4275C26.6645 15.4275 26.4401 15.4454 26.2215 15.4797L25.3073 15.6232ZM26.0993 9.36735C26.0993 5.85076 23.2625 3 19.7632 3H12.2368C8.73747 3 5.90071 5.85076 5.90071 9.36735V14.6933C5.6426 14.6528 5.37809 14.6317 5.1087 14.6316C5.10793 14.6316 5.10716 14.6316 5.10638 14.6316C2.28621 14.6316 0 16.9291 0 19.7632C0 22.5973 2.28621 24.8947 5.10638 24.8947C5.50447 24.8947 5.89192 24.849 6.2638 24.7624C7.13565 27.2316 9.48072 29 12.2368 29H19.7632C22.5193 29 24.8644 27.2316 25.7362 24.7624C26.1081 24.849 26.4955 24.8947 26.8936 24.8947C29.7138 24.8947 32 22.5973 32 19.7632C32 16.9291 29.7138 14.6316 26.8936 14.6316C26.8928 14.6316 26.8921 14.6316 26.8913 14.6316C26.6219 14.6317 26.3574 14.6528 26.0993 14.6933V9.36735Z" fill="black"/>
<path d="M14.9688 15.8431C15.0304 15.3275 15.4656 14.9395 15.9824 14.9395V14.9395C16.5146 14.9395 16.9575 15.3504 16.9999 15.8835L17.329 20.0169C17.3957 20.855 16.7369 21.5721 15.9003 21.5721V21.5721C15.041 21.5721 14.3748 20.8175 14.4772 19.9602L14.9688 15.8431Z" fill="white"/>
<path fill-rule="evenodd" clip-rule="evenodd" d="M17.7885 15.8191L18.1176 19.9525C18.2212 21.2537 17.1984 22.3671 15.8994 22.3671C14.5653 22.3671 13.531 21.1955 13.69 19.8644L14.1816 15.7473C14.2909 14.8317 15.0639 14.1426 15.9815 14.1426C16.9266 14.1426 17.7132 14.8723 17.7885 15.8191ZM15.9815 14.9385C15.4648 14.9385 15.0295 15.3265 14.968 15.8421L14.4764 19.9592C14.374 20.8166 15.0401 21.5711 15.8994 21.5711C16.736 21.5711 17.3948 20.854 17.3281 20.016L16.9991 15.8825C16.9566 15.3494 16.5137 14.9385 15.9815 14.9385Z" fill="black"/>
<path d="M11.3809 23.2944C11.3809 23.0747 11.5582 22.8965 11.7769 22.8965H20.225C20.4437 22.8965 20.621 23.0747 20.621 23.2944V23.2944C20.621 23.5142 20.4437 23.6924 20.225 23.6924H11.7769C11.5582 23.6924 11.3809 23.5142 11.3809 23.2944V23.2944Z" fill="black"/>
<path d="M13.8781 18.5058C13.8781 19.6394 12.9636 20.5584 11.8355 20.5584C10.7075 20.5584 9.79297 19.6394 9.79297 18.5058C9.79297 17.3721 10.7075 16.4531 11.8355 16.4531C12.9636 16.4531 13.8781 17.3721 13.8781 18.5058Z" fill="white"/>
<path fill-rule="evenodd" clip-rule="evenodd" d="M11.837 16.8526C10.9276 16.8526 10.1904 17.5934 10.1904 18.5072C10.1904 19.4211 10.9276 20.1619 11.837 20.1619C12.7464 20.1619 13.4835 19.4211 13.4835 18.5072C13.4835 17.5934 12.7464 16.8526 11.837 16.8526ZM9.39844 18.5072C9.39844 17.1538 10.4902 16.0566 11.837 16.0566C13.1838 16.0566 14.2756 17.1538 14.2756 18.5072C14.2756 19.8607 13.1838 20.9578 11.837 20.9578C10.4902 20.9578 9.39844 19.8607 9.39844 18.5072Z" fill="black"/>
<path d="M12.4411 18.5187C12.4411 18.885 12.1456 19.182 11.7811 19.182C11.4166 19.182 11.1211 18.885 11.1211 18.5187C11.1211 18.1524 11.4166 17.8555 11.7811 17.8555C12.1456 17.8555 12.4411 18.1524 12.4411 18.5187Z" fill="black"/>
<path fill-rule="evenodd" clip-rule="evenodd" d="M11.7787 18.2529C11.6329 18.2529 11.5147 18.3717 11.5147 18.5183C11.5147 18.6648 11.6329 18.7836 11.7787 18.7836C11.9245 18.7836 12.0427 18.6648 12.0427 18.5183C12.0427 18.3717 11.9245 18.2529 11.7787 18.2529ZM10.7227 18.5183C10.7227 17.9322 11.1954 17.457 11.7787 17.457C12.3619 17.457 12.8347 17.9322 12.8347 18.5183C12.8347 19.1044 12.3619 19.5795 11.7787 19.5795C11.1954 19.5795 10.7227 19.1044 10.7227 18.5183Z" fill="black"/>
<path d="M22.2042 18.5058C22.2042 19.6394 21.2898 20.5584 20.1617 20.5584C19.0336 20.5584 18.1191 19.6394 18.1191 18.5058C18.1191 17.3721 19.0336 16.4531 20.1617 16.4531C21.2898 16.4531 22.2042 17.3721 22.2042 18.5058Z" fill="white"/>
<path fill-rule="evenodd" clip-rule="evenodd" d="M20.1632 16.8526C19.2538 16.8526 18.5166 17.5934 18.5166 18.5072C18.5166 19.4211 19.2538 20.1619 20.1632 20.1619C21.0725 20.1619 21.8097 19.4211 21.8097 18.5072C21.8097 17.5934 21.0725 16.8526 20.1632 16.8526ZM17.7246 18.5072C17.7246 17.1538 18.8164 16.0566 20.1632 16.0566C21.5099 16.0566 22.6017 17.1538 22.6017 18.5072C22.6017 19.8607 21.5099 20.9578 20.1632 20.9578C18.8164 20.9578 17.7246 19.8607 17.7246 18.5072Z" fill="black"/>
<path d="M20.8806 18.5187C20.8806 18.885 20.5851 19.182 20.2206 19.182C19.856 19.182 19.5605 18.885 19.5605 18.5187C19.5605 18.1524 19.856 17.8555 20.2206 17.8555C20.5851 17.8555 20.8806 18.1524 20.8806 18.5187Z" fill="black"/>
<path fill-rule="evenodd" clip-rule="evenodd" d="M20.2201 18.2529C20.0743 18.2529 19.9561 18.3717 19.9561 18.5183C19.9561 18.6648 20.0743 18.7836 20.2201 18.7836C20.3659 18.7836 20.4841 18.6648 20.4841 18.5183C20.4841 18.3717 20.3659 18.2529 20.2201 18.2529ZM19.1641 18.5183C19.1641 17.9322 19.6369 17.457 20.2201 17.457C20.8033 17.457 21.2761 17.9322 21.2761 18.5183C21.2761 19.1044 20.8033 19.5795 20.2201 19.5795C19.6369 19.5795 19.1641 19.1044 19.1641 18.5183Z" fill="black"/>
<path d="M16.7969 15.4655C16.7969 14.8794 17.2697 14.4043 17.8529 14.4043H23.2302C23.8134 14.4043 24.2862 14.8794 24.2862 15.4655V17.4483C24.2862 18.0344 23.8134 18.5096 23.2302 18.5096H17.8529C17.2697 18.5096 16.7969 18.0344 16.7969 17.4483V15.4655Z" fill="white"/>
<path fill-rule="evenodd" clip-rule="evenodd" d="M23.2302 15.2002H17.8529C17.7071 15.2002 17.5889 15.319 17.5889 15.4655V17.4483C17.5889 17.5949 17.7071 17.7136 17.8529 17.7136H23.2302C23.376 17.7136 23.4942 17.5949 23.4942 17.4483V15.4655C23.4942 15.319 23.376 15.2002 23.2302 15.2002ZM17.8529 14.4043C17.2697 14.4043 16.7969 14.8794 16.7969 15.4655V17.4483C16.7969 18.0344 17.2697 18.5096 17.8529 18.5096H23.2302C23.8134 18.5096 24.2862 18.0344 24.2862 17.4483V15.4655C24.2862 14.8794 23.8134 14.4043 23.2302 14.4043H17.8529Z" fill="black"/>
<path d="M7.7207 15.4655C7.7207 14.8794 8.1935 14.4043 8.77672 14.4043H14.1541C14.7373 14.4043 15.2101 14.8794 15.2101 15.4655V17.4483C15.2101 18.0344 14.7373 18.5096 14.1541 18.5096H8.77672C8.1935 18.5096 7.7207 18.0344 7.7207 17.4483V15.4655Z" fill="white"/>
<path fill-rule="evenodd" clip-rule="evenodd" d="M14.1541 15.2002H8.77672C8.63091 15.2002 8.51271 15.319 8.51271 15.4655V17.4483C8.51271 17.5949 8.63091 17.7136 8.77672 17.7136H14.1541C14.2999 17.7136 14.4181 17.5949 14.4181 17.4483V15.4655C14.4181 15.319 14.2999 15.2002 14.1541 15.2002ZM8.77672 14.4043C8.1935 14.4043 7.7207 14.8794 7.7207 15.4655V17.4483C7.7207 18.0344 8.1935 18.5096 8.77672 18.5096H14.1541C14.7373 18.5096 15.2101 18.0344 15.2101 17.4483V15.4655C15.2101 14.8794 14.7373 14.4043 14.1541 14.4043H8.77672Z" fill="black"/>
<path d="M25.1094 10.9597C25.1094 10.3736 25.5822 9.89844 26.1654 9.89844H27.4576C28.0408 9.89844 28.5136 10.3736 28.5136 10.9597V15.4512C28.5136 16.0373 28.0408 16.5125 27.4576 16.5125H26.1654C25.5822 16.5125 25.1094 16.0373 25.1094 15.4512V10.9597Z" fill="white"/>
<path fill-rule="evenodd" clip-rule="evenodd" d="M27.4576 10.6944H26.1654C26.0196 10.6944 25.9014 10.8131 25.9014 10.9597V15.4512C25.9014 15.5978 26.0196 15.7166 26.1654 15.7166H27.4576C27.6034 15.7166 27.7216 15.5978 27.7216 15.4512V10.9597C27.7216 10.8131 27.6034 10.6944 27.4576 10.6944ZM26.1654 9.89844C25.5822 9.89844 25.1094 10.3736 25.1094 10.9597V15.4512C25.1094 16.0373 25.5822 16.5125 26.1654 16.5125H27.4576C28.0408 16.5125 28.5136 16.0373 28.5136 15.4512V10.9597C28.5136 10.3736 28.0408 9.89844 27.4576 9.89844H26.1654Z" fill="black"/>
<path d="M3.45898 10.9597C3.45898 10.3736 3.93178 9.89844 4.515 9.89844H5.80723C6.39045 9.89844 6.86324 10.3736 6.86324 10.9597V15.4512C6.86324 16.0373 6.39045 16.5125 5.80723 16.5125H4.515C3.93178 16.5125 3.45898 16.0373 3.45898 15.4512V10.9597Z" fill="white"/>
<path fill-rule="evenodd" clip-rule="evenodd" d="M5.80723 10.6944H4.515C4.36919 10.6944 4.25099 10.8131 4.25099 10.9597V15.4512C4.25099 15.5978 4.36919 15.7166 4.515 15.7166H5.80723C5.95303 15.7166 6.07123 15.5978 6.07123 15.4512V10.9597C6.07123 10.8131 5.95303 10.6944 5.80723 10.6944ZM4.515 9.89844C3.93178 9.89844 3.45898 10.3736 3.45898 10.9597V15.4512C3.45898 16.0373 3.93178 16.5125 4.515 16.5125H5.80723C6.39045 16.5125 6.86324 16.0373 6.86324 15.4512V10.9597C6.86324 10.3736 6.39045 9.89844 5.80723 9.89844H4.515Z" fill="black"/>
<path fill-rule="evenodd" clip-rule="evenodd" d="M25.5054 20.3789C25.2867 20.3789 25.1094 20.2007 25.1094 19.9809L25.1094 15.4707C25.1094 15.251 25.2867 15.0728 25.5054 15.0728C25.7241 15.0728 25.9014 15.251 25.9014 15.4707L25.9014 19.9809C25.9014 20.2007 25.7241 20.3789 25.5054 20.3789Z" fill="black"/>
<path fill-rule="evenodd" clip-rule="evenodd" d="M6.49561 20.3789C6.27691 20.3789 6.09961 20.2007 6.09961 19.9809L6.09961 15.4707C6.09961 15.251 6.27691 15.0728 6.49561 15.0728C6.71432 15.0728 6.89162 15.251 6.89162 15.4707L6.89162 19.9809C6.89162 20.2007 6.71432 20.3789 6.49561 20.3789Z" fill="black"/>
</svg>
