{
	"asset":{
		"version":"2.0",
		"generator":"Maxon Cinema 4D 2024.4.0 (#200000219)"
	},
	"scenes":[{
		"nodes":[0]
	}],
	"nodes":[{
		"name":"Clock",
		"translation":[0.0,
		0.0,
		0.0],
		"rotation":[-0.7071067690849304,
		0.0,
		0.0,
		-0.7071067690849304],
		"scale":[1.0,
		1.0,
		1.0],
		"children":[1]
	},
	{
		"name":"Tube",
		"mesh":0,
		"children":[2]
	},
	{
		"name":"Cylinder",
		"mesh":1,
		"children":[3,
		4,
		5,
		6]
	},
	{
		"name":"Cylinder",
		"mesh":2,
		"translation":[0.0,
		0.029836181551218034,
		0.0],
		"rotation":[0.0,
		0.0,
		0.0,
		-1.0],
		"scale":[1.0,
		1.0,
		1.0],
		"children":[7,
		8]
	},
	{
		"name":"Cloner.1",
		"translation":[0.0,
		0.02199999988079071,
		0.0],
		"rotation":[0.0,
		0.0,
		0.0,
		-1.0],
		"scale":[1.0,
		1.0,
		1.0],
		"children":[9,
		10,
		11,
		12,
		13,
		14,
		15,
		16,
		17,
		18,
		19,
		20]
	},
	{
		"name":"Cloner",
		"translation":[0.0,
		0.023571055382490159,
		0.0],
		"rotation":[0.0,
		0.0,
		0.0,
		-1.0],
		"scale":[1.0,
		1.0,
		1.0],
		"children":[21,
		22,
		23,
		24]
	},
	{
		"name":"Sphere",
		"mesh":3,
		"translation":[0.0,
		0.023881305009126664,
		7.105427198782324e-17],
		"rotation":[0.0,
		0.0,
		0.0,
		-1.0],
		"scale":[1.0,
		0.3140000104904175,
		1.0]
	},
	{
		"name":"Cube.1",
		"mesh":4,
		"translation":[0.00014464650303125381,
		0.004438279662281275,
		-0.061762332916259769],
		"rotation":[0.0,
		-0.7071067690849304,
		0.0,
		-0.7071067690849304],
		"scale":[1.0,
		1.0,
		1.0]
	},
	{
		"name":"Cube",
		"mesh":5,
		"translation":[0.05640948936343193,
		0.004438279662281275,
		0.0],
		"rotation":[0.0,
		0.0,
		0.0,
		-1.0],
		"scale":[1.0,
		1.0,
		1.0]
	},
	{
		"name":"Cube 0",
		"mesh":6,
		"translation":[0.0,
		0.0,
		-0.17800000309944154],
		"rotation":[0.0,
		0.0,
		0.0,
		-1.0],
		"scale":[1.0,
		1.0,
		1.0]
	},
	{
		"name":"Cube 1",
		"mesh":6,
		"translation":[0.08900000154972077,
		0.0,
		-0.1541525274515152],
		"rotation":[0.0,
		-0.258819043636322,
		0.0,
		0.9659258127212524],
		"scale":[1.0,
		1.0,
		1.0]
	},
	{
		"name":"Cube 2",
		"mesh":6,
		"translation":[0.1541525274515152,
		0.0,
		-0.08900000154972077],
		"rotation":[0.0,
		-0.5,
		0.0,
		0.8660253882408142],
		"scale":[1.0,
		1.0,
		1.0]
	},
	{
		"name":"Cube 3",
		"mesh":6,
		"translation":[0.17800000309944154,
		0.0,
		-1.0899356921833545e-17],
		"rotation":[0.0,
		-0.7071067690849304,
		0.0,
		0.7071067690849304],
		"scale":[1.0,
		1.0,
		1.0]
	},
	{
		"name":"Cube 4",
		"mesh":6,
		"translation":[0.1541525274515152,
		0.0,
		0.08900000154972077],
		"rotation":[0.0,
		-0.8660253882408142,
		0.0,
		0.5],
		"scale":[1.0,
		1.0,
		1.0]
	},
	{
		"name":"Cube 5",
		"mesh":6,
		"translation":[0.08900000154972077,
		0.0,
		0.1541525274515152],
		"rotation":[0.0,
		-0.9659258127212524,
		0.0,
		0.258819043636322],
		"scale":[1.0,
		1.0,
		1.0]
	},
	{
		"name":"Cube 6",
		"mesh":6,
		"translation":[1.0084659126468433e-16,
		0.0,
		0.17800000309944154],
		"rotation":[0.0,
		-1.0,
		0.0,
		3.82856880455694e-16],
		"scale":[1.0,
		1.0,
		1.0]
	},
	{
		"name":"Cube 7",
		"mesh":6,
		"translation":[-0.08900000154972077,
		0.0,
		0.1541525274515152],
		"rotation":[0.0,
		-0.9659258127212524,
		0.0,
		-0.258819043636322],
		"scale":[1.0,
		1.0,
		1.0]
	},
	{
		"name":"Cube 8",
		"mesh":6,
		"translation":[-0.1541525274515152,
		0.0,
		0.08900000154972077],
		"rotation":[0.0,
		-0.8660253882408142,
		0.0,
		-0.5],
		"scale":[1.0,
		1.0,
		1.0]
	},
	{
		"name":"Cube 9",
		"mesh":6,
		"translation":[-0.17800000309944154,
		0.0,
		3.269806911113941e-17],
		"rotation":[0.0,
		-0.7071067690849304,
		0.0,
		-0.7071067690849304],
		"scale":[1.0,
		1.0,
		1.0]
	},
	{
		"name":"Cube 10",
		"mesh":6,
		"translation":[-0.1541525274515152,
		0.0,
		-0.08900000154972077],
		"rotation":[0.0,
		-0.5,
		0.0,
		-0.8660253882408142],
		"scale":[1.0,
		1.0,
		1.0]
	},
	{
		"name":"Cube 11",
		"mesh":6,
		"translation":[-0.08900000154972077,
		0.0,
		-0.1541525274515152],
		"rotation":[0.0,
		-0.258819043636322,
		0.0,
		-0.9659258127212524],
		"scale":[1.0,
		1.0,
		1.0]
	},
	{
		"name":"Cube 0",
		"mesh":7,
		"translation":[0.0,
		0.0,
		-0.17800000309944154],
		"rotation":[0.0,
		0.0,
		0.0,
		-1.0],
		"scale":[1.0,
		1.0,
		1.0]
	},
	{
		"name":"Cube 1",
		"mesh":7,
		"translation":[0.17800000309944154,
		0.0,
		-1.0899356921833545e-17],
		"rotation":[0.0,
		-0.7071067690849304,
		0.0,
		0.7071067690849304],
		"scale":[1.0,
		1.0,
		1.0]
	},
	{
		"name":"Cube 2",
		"mesh":7,
		"translation":[2.179871384366709e-17,
		0.0,
		0.17800000309944154],
		"rotation":[0.0,
		-1.0,
		0.0,
		-6.123234262925839e-17],
		"scale":[1.0,
		1.0,
		1.0]
	},
	{
		"name":"Cube 3",
		"mesh":7,
		"translation":[-0.17800000309944154,
		0.0,
		3.269806911113941e-17],
		"rotation":[0.0,
		-0.7071067690849304,
		0.0,
		-0.7071067690849304],
		"scale":[1.0,
		1.0,
		1.0]
	}],
	"meshes":[{
		"name":"Tube",
		"primitives":[{
			"indices":0,
			"attributes":{
				"POSITION":1,
				"NORMAL":2,
				"TEXCOORD_0":3
			},
			"material":0
		}]
	},
	{
		"name":"Cylinder",
		"primitives":[{
			"indices":4,
			"attributes":{
				"POSITION":5,
				"NORMAL":6,
				"TEXCOORD_0":7
			},
			"material":1
		}]
	},
	{
		"name":"Cylinder",
		"primitives":[{
			"indices":8,
			"attributes":{
				"POSITION":9,
				"NORMAL":10,
				"TEXCOORD_0":11
			},
			"material":2
		}]
	},
	{
		"name":"Sphere",
		"primitives":[{
			"indices":12,
			"attributes":{
				"POSITION":13,
				"NORMAL":14,
				"TEXCOORD_0":15
			},
			"material":3
		}]
	},
	{
		"name":"Cube.1",
		"primitives":[{
			"indices":16,
			"attributes":{
				"POSITION":17,
				"NORMAL":18,
				"TEXCOORD_0":19
			},
			"material":2
		}]
	},
	{
		"name":"Cube",
		"primitives":[{
			"indices":20,
			"attributes":{
				"POSITION":21,
				"NORMAL":22,
				"TEXCOORD_0":23
			},
			"material":2
		}]
	},
	{
		"name":"Cube 0",
		"primitives":[{
			"indices":24,
			"attributes":{
				"POSITION":25,
				"NORMAL":26,
				"TEXCOORD_0":27
			},
			"material":4
		}]
	},
	{
		"name":"Cube 0",
		"primitives":[{
			"indices":28,
			"attributes":{
				"POSITION":29,
				"NORMAL":30,
				"TEXCOORD_0":31
			},
			"material":4
		}]
	}],
	"accessors":[{
		"type":"SCALAR",
		"bufferView":0,
		"componentType":5123,
		"count":240,
		"byteOffset":0,
		"min":[0],
		"max":[239]
	},
	{
		"type":"VEC3",
		"bufferView":1,
		"componentType":5126,
		"count":240,
		"byteOffset":0,
		"min":[-0.28999999165534975,
		-0.03500000014901161,
		-0.27580639719963076],
		"max":[0.28999999165534975,
		0.03500000014901161,
		0.27580639719963076]
	},
	{
		"type":"VEC3",
		"bufferView":1,
		"componentType":5126,
		"count":240,
		"byteOffset":12,
		"min":[-0.9941878914833069,
		-1.0,
		-0.9788004755973816],
		"max":[0.9941878914833069,
		1.0,
		0.9788004755973816]
	},
	{
		"type":"VEC2",
		"bufferView":1,
		"componentType":5126,
		"count":240,
		"byteOffset":24,
		"min":[0.0,
		0.0],
		"max":[1.0,
		1.0]
	},
	{
		"type":"SCALAR",
		"bufferView":2,
		"componentType":5123,
		"count":120,
		"byteOffset":0,
		"min":[0],
		"max":[119]
	},
	{
		"type":"VEC3",
		"bufferView":3,
		"componentType":5126,
		"count":120,
		"byteOffset":0,
		"min":[-0.2396666705608368,
		-0.026825666427612306,
		-0.2279365509748459],
		"max":[0.2396666705608368,
		0.026825666427612306,
		0.2279365509748459]
	},
	{
		"type":"VEC3",
		"bufferView":3,
		"componentType":5126,
		"count":120,
		"byteOffset":12,
		"min":[-0.9941878914833069,
		-1.0,
		-0.9788004755973816],
		"max":[0.9941878914833069,
		1.0,
		0.9788004755973816]
	},
	{
		"type":"VEC2",
		"bufferView":3,
		"componentType":5126,
		"count":120,
		"byteOffset":24,
		"min":[0.0,
		0.0],
		"max":[1.0,
		1.0]
	},
	{
		"type":"SCALAR",
		"bufferView":4,
		"componentType":5123,
		"count":120,
		"byteOffset":0,
		"min":[0],
		"max":[119]
	},
	{
		"type":"VEC3",
		"bufferView":5,
		"componentType":5126,
		"count":120,
		"byteOffset":0,
		"min":[-0.02149909920990467,
		-0.02500000037252903,
		-0.020446859300136567],
		"max":[0.02149909920990467,
		0.02500000037252903,
		0.020446859300136567]
	},
	{
		"type":"VEC3",
		"bufferView":5,
		"componentType":5126,
		"count":120,
		"byteOffset":12,
		"min":[-0.9941878914833069,
		-1.0,
		-0.9788004755973816],
		"max":[0.9941878914833069,
		1.0,
		0.9788004755973816]
	},
	{
		"type":"VEC2",
		"bufferView":5,
		"componentType":5126,
		"count":120,
		"byteOffset":24,
		"min":[0.0,
		0.0],
		"max":[1.0,
		1.0]
	},
	{
		"type":"SCALAR",
		"bufferView":6,
		"componentType":5123,
		"count":180,
		"byteOffset":0,
		"min":[0],
		"max":[179]
	},
	{
		"type":"VEC3",
		"bufferView":7,
		"componentType":5126,
		"count":180,
		"byteOffset":0,
		"min":[-0.24611333012580872,
		0.0,
		-0.24611333012580872],
		"max":[0.24611333012580872,
		0.24611333012580872,
		0.24611333012580872]
	},
	{
		"type":"VEC3",
		"bufferView":7,
		"componentType":5126,
		"count":180,
		"byteOffset":12,
		"min":[-0.9623562693595886,
		0.2578471004962921,
		-0.9623562693595886],
		"max":[0.9623562693595886,
		1.0,
		0.9623562693595886]
	},
	{
		"type":"VEC2",
		"bufferView":7,
		"componentType":5126,
		"count":180,
		"byteOffset":24,
		"min":[0.0,
		0.0],
		"max":[1.0,
		0.5]
	},
	{
		"type":"SCALAR",
		"bufferView":8,
		"componentType":5123,
		"count":36,
		"byteOffset":0,
		"min":[0],
		"max":[35]
	},
	{
		"type":"VEC3",
		"bufferView":9,
		"componentType":5126,
		"count":36,
		"byteOffset":0,
		"min":[-0.0654488280415535,
		-0.005739097949117422,
		-0.011277064681053162],
		"max":[0.0654488280415535,
		0.005739097949117422,
		0.011277064681053162]
	},
	{
		"type":"VEC3",
		"bufferView":9,
		"componentType":5126,
		"count":36,
		"byteOffset":12,
		"min":[-1.0,
		-1.0,
		-1.0],
		"max":[1.0,
		1.0,
		1.0]
	},
	{
		"type":"VEC2",
		"bufferView":9,
		"componentType":5126,
		"count":36,
		"byteOffset":24,
		"min":[0.0,
		0.0],
		"max":[1.0,
		1.0]
	},
	{
		"type":"SCALAR",
		"bufferView":10,
		"componentType":5123,
		"count":36,
		"byteOffset":0,
		"min":[0],
		"max":[35]
	},
	{
		"type":"VEC3",
		"bufferView":11,
		"componentType":5126,
		"count":36,
		"byteOffset":0,
		"min":[-0.05044882744550705,
		-0.005739097949117422,
		-0.011277064681053162],
		"max":[0.05044882744550705,
		0.005739097949117422,
		0.011277064681053162]
	},
	{
		"type":"VEC3",
		"bufferView":11,
		"componentType":5126,
		"count":36,
		"byteOffset":12,
		"min":[-1.0,
		-1.0,
		-1.0],
		"max":[1.0,
		1.0,
		1.0]
	},
	{
		"type":"VEC2",
		"bufferView":11,
		"componentType":5126,
		"count":36,
		"byteOffset":24,
		"min":[0.0,
		0.0],
		"max":[1.0,
		1.0]
	},
	{
		"type":"SCALAR",
		"bufferView":12,
		"componentType":5123,
		"count":36,
		"byteOffset":0,
		"min":[0],
		"max":[35]
	},
	{
		"type":"VEC3",
		"bufferView":13,
		"componentType":5126,
		"count":36,
		"byteOffset":0,
		"min":[-0.004999999888241291,
		-0.004999999888241291,
		-0.017999999225139619],
		"max":[0.004999999888241291,
		0.004999999888241291,
		0.017999999225139619]
	},
	{
		"type":"VEC3",
		"bufferView":13,
		"componentType":5126,
		"count":36,
		"byteOffset":12,
		"min":[-1.0,
		-1.0,
		-1.0],
		"max":[1.0,
		1.0,
		1.0]
	},
	{
		"type":"VEC2",
		"bufferView":13,
		"componentType":5126,
		"count":36,
		"byteOffset":24,
		"min":[0.0,
		0.0],
		"max":[1.0,
		1.0]
	},
	{
		"type":"SCALAR",
		"bufferView":14,
		"componentType":5123,
		"count":36,
		"byteOffset":0,
		"min":[0],
		"max":[35]
	},
	{
		"type":"VEC3",
		"bufferView":15,
		"componentType":5126,
		"count":36,
		"byteOffset":0,
		"min":[-0.014999999664723874,
		-0.004999999888241291,
		-0.029999999329447748],
		"max":[0.014999999664723874,
		0.004999999888241291,
		0.029999999329447748]
	},
	{
		"type":"VEC3",
		"bufferView":15,
		"componentType":5126,
		"count":36,
		"byteOffset":12,
		"min":[-1.0,
		-1.0,
		-1.0],
		"max":[1.0,
		1.0,
		1.0]
	},
	{
		"type":"VEC2",
		"bufferView":15,
		"componentType":5126,
		"count":36,
		"byteOffset":24,
		"min":[0.0,
		0.0],
		"max":[1.0,
		1.0]
	}],
	"bufferViews":[{
		"buffer":0,
		"byteOffset":0,
		"byteLength":480,
		"target":34963
	},
	{
		"buffer":0,
		"byteOffset":480,
		"byteLength":7680,
		"target":34962,
		"byteStride":32
	},
	{
		"buffer":1,
		"byteOffset":0,
		"byteLength":240,
		"target":34963
	},
	{
		"buffer":1,
		"byteOffset":240,
		"byteLength":3840,
		"target":34962,
		"byteStride":32
	},
	{
		"buffer":2,
		"byteOffset":0,
		"byteLength":240,
		"target":34963
	},
	{
		"buffer":2,
		"byteOffset":240,
		"byteLength":3840,
		"target":34962,
		"byteStride":32
	},
	{
		"buffer":3,
		"byteOffset":0,
		"byteLength":360,
		"target":34963
	},
	{
		"buffer":3,
		"byteOffset":360,
		"byteLength":5760,
		"target":34962,
		"byteStride":32
	},
	{
		"buffer":4,
		"byteOffset":0,
		"byteLength":72,
		"target":34963
	},
	{
		"buffer":4,
		"byteOffset":72,
		"byteLength":1152,
		"target":34962,
		"byteStride":32
	},
	{
		"buffer":5,
		"byteOffset":0,
		"byteLength":72,
		"target":34963
	},
	{
		"buffer":5,
		"byteOffset":72,
		"byteLength":1152,
		"target":34962,
		"byteStride":32
	},
	{
		"buffer":6,
		"byteOffset":0,
		"byteLength":72,
		"target":34963
	},
	{
		"buffer":6,
		"byteOffset":72,
		"byteLength":1152,
		"target":34962,
		"byteStride":32
	},
	{
		"buffer":7,
		"byteOffset":0,
		"byteLength":72,
		"target":34963
	},
	{
		"buffer":7,
		"byteOffset":72,
		"byteLength":1152,
		"target":34962,
		"byteStride":32
	}],
	"buffers":[{
		"uri":"data:application/octet-stream;base64,",
		"byteLength":8160
	},
	{
		"uri":"data:application/octet-stream;base64,",
		"byteLength":4080
	},
	{
		"uri":"data:application/octet-stream;base64,",
		"byteLength":4080
	},
	{
		"uri":"data:application/octet-stream;base64,",
		"byteLength":6120
	},
	{
		"uri":"data:application/octet-stream;base64,",
		"byteLength":1224
	},
	{
		"uri":"data:application/octet-stream;base64,",
		"byteLength":1224
	},
	{
		"uri":"data:application/octet-stream;base64,",
		"byteLength":1224
	},
	{
		"uri":"data:application/octet-stream;base64,",
		"byteLength":1224
	}],
	"materials":[{
		"pbrMetallicRoughness":{
			"baseColorFactor":[0.11480000000000002,
			0.40863333333333298,
			0.8200000000000001,
			1.0],
			"metallicFactor":0.0,
			"roughnessFactor":0.5
		},
		"emissiveFactor":[0.0,
		0.0,
		0.0],
		"alphaMode":"OPAQUE",
		"doubleSided":false,
		"name":"Mat"
	},
	{
		"pbrMetallicRoughness":{
			"baseColorFactor":[0.93,
			0.93,
			0.93,
			1.0],
			"metallicFactor":0.0,
			"roughnessFactor":0.5
		},
		"emissiveFactor":[0.0,
		0.0,
		0.0],
		"alphaMode":"OPAQUE",
		"doubleSided":false,
		"name":"Mat"
	},
	{
		"pbrMetallicRoughness":{
			"baseColorFactor":[0.9400000000000001,
			0.3102000000000001,
			0.3102000000000001,
			1.0],
			"metallicFactor":0.0,
			"roughnessFactor":0.5
		},
		"emissiveFactor":[0.0,
		0.0,
		0.0],
		"alphaMode":"OPAQUE",
		"doubleSided":false,
		"name":"Mat"
	},
	{
		"pbrMetallicRoughness":{
			"baseColorFactor":[0.11480000000000002,
			0.40863333333333298,
			0.8200000000000001,
			0.0],
			"metallicFactor":0.0,
			"roughnessFactor":0.5
		},
		"emissiveFactor":[0.0,
		0.0,
		0.0],
		"alphaMode":"BLEND",
		"doubleSided":false,
		"name":"Mat"
	},
	{
		"pbrMetallicRoughness":{
			"baseColorFactor":[0.0014000000000000003,
			0.004983333333333328,
			0.01,
			1.0],
			"metallicFactor":0.0,
			"roughnessFactor":0.5
		},
		"emissiveFactor":[0.0,
		0.0,
		0.0],
		"alphaMode":"OPAQUE",
		"doubleSided":false,
		"name":"Mat"
	}]
}